# xmcd
#
# Track frame offsets:
#	150
#	21523
#	47170
#	71550
#	87620
#	109868
#	129423
#	149590
#	168088
#	187308
#
# Disc length: 2833 seconds
#
# Revision: 1207345439
# Processed by: cddbd v1.5.2PL0 Copyright (c) Steve Scherf et al.
# Submitted via: EZCDAudioConverter 8.0.2.1
#
DISCID=980b0f0a
DTITLE=Chế Linh - Nhớ Người Yêu
DYEAR=1991
DGENRE=Miscellaneous
TTITLE0=Nhớ Người Yêu
TTITLE1=Vọng gác đêm sương
TTITLE2=Lính nghĩ gì
TTITLE3=Kẻ ở miền xa
TTITLE4=Những ngày xưa thân ái
TTITLE5=Mình nhớ nhau không
TTITLE6=Tình nào trong mắt em
TTITLE7=Xin lam người xa lạ
TTITLE8=Đoạn tuyệt
TTITLE9=Thư về em gái thành đô
EXTD=
EXTT0=
EXTT1=
EXTT2=
EXTT3=
EXTT4=
EXTT5=
EXTT6=
EXTT7=
EXTT8=
EXTT9=
PLAYORDER=
